PathFileType	4	(X/Y/Z)	C:/Users/beibeiliu/ov580/test_trc/User1\sequence.38_training_dense_left.trc
DataRate	CameraRate	NumFrames	NumMarkers	Units	OrigDataRate	OrigDataStartFrame	OrigNumFrames
120	120	17	19	mm	120	1	500
Frame#	Time	ThumbCMC			ThumbMCP			ThumbIP			ThumbTip			IndexMCP			IndexPIP			IndexTip			MiddleMCP			MiddlePIP			MiddleTip			RingMCP			RingPIP			RingTip			PinkyMCP			PinkyPIP			PinkyTip			BackHand1			BackHand2			BackHand3	
		X0	Y0	Z0	X1	Y1	Z1	X2	Y2	Z2	X3	Y3	Z3	X4	Y4	Z4	X5	Y5	Z5	X6	Y6	Z6	X7	Y7	Z7	X8	Y8	Z8	X9	Y9	Z9	X10	Y10	Z10	X11	Y11	Z11	X12	Y12	Z12	X13	Y13	Z13	X14	Y14	Z14	X15	Y15	Z15	X16	Y16	Z16	X17	Y17	Z17	X18	Y18	Z18	
0	0	-88.7768	-46.4135	65.3922	-66.5923	-61.9729	60.3239	-41.7074	-69.8504	50.5448	-20.7509	-76.608	45.6332	-98.0452	-67.0181	-20.252	-93.0737	-73.7699	-43.6883	-90.8825	-77.5986	-73.675	-123.201	-60.3044	-33.0061	-123.265	-64.7485	-60.3824	-125.866	-69.7598	-89.613	-146.778	-60.316	-29.4969	-148.89	-62.3577	-52.232	-152.524	-67.8856	-77.25	-180.589	-64.1963	-7.28727	-188.785	-66.6738	-20.5271	-196.482	-62.2774	-44.5615	-147.746	-39.128	18.5079	-151.942	-21.5486	52.7381	-115.943	-33.1154	37.3067	
1	0.00833333	-92.4982	-49.4985	64.8918	-68.1524	-63.5063	60.0931	-48.9518	-74.3063	48.0539	-24.8059	-80.3026	45.0681	-101.246	-68.9898	-20.0216	-97.3454	-75.478	-46.2606	-96.3727	-80.6147	-73.0736	-125.041	-62.9524	-33.6493	-124.913	-67.1985	-55.8399	-128.463	-72.5156	-87.6618	-153.907	-60.6703	-25.7664	-150.911	-65.0898	-50.6717	-154.9	-70.1639	-80.4453	-179.182	-66.1706	-2.43917	-193.458	-68.9491	-22.9843	-199.858	-63.2491	-40.298	-153.174	-40.2791	23.8564	-153.13	-22.9965	51.5831	-117.731	-36.0178	37.7356	
2	0.0166667	-95.3393	-50.1064	67.7999	-73.2198	-64.3036	62.3812	-46.7327	-75.1977	47.6978	-31.2692	-81.4654	46.3522	-98.2707	-71.9713	-21.5434	-100.19	-77.2614	-42.817	-95.4583	-82.5945	-67.3328	-129.66	-63.2127	-29.4563	-127.412	-69.4428	-55.5945	-127.488	-74.3348	-84.2891	-151.035	-62.4419	-22.38	-153.561	-67.5717	-53.755	-157.995	-72.4771	-78.1254	-182.977	-66.4369	-2.34994	-194.448	-70.6616	-19.6575	-200.671	-67.7191	-40.2865	-155.816	-40.5559	24.1463	-154.884	-25.4096	53.0398	-121.776	-35.8425	41.2483	
3	0.025	-92.232	-51.0957	64.6289	-73.3877	-65.5068	60.1295	-50.1391	-74.9874	49.0806	-32.063	-81.2008	48.2862	-102.192	-71.7852	-20.6203	-96.7129	-77.6763	-45.1021	-102.158	-82.8405	-66.5049	-128.338	-63.8663	-27.3596	-128.43	-69.939	-57.0065	-130.836	-74.3876	-84.4432	-151.701	-62.9672	-24.3806	-155.416	-67.2741	-51.8425	-156.639	-72.5278	-72.6511	-179.179	-67.8677	-1.63864	-190.685	-70.673	-20.7856	-200.773	-66.127	-39.9571	-155.049	-43.003	22.6149	-159.504	-25.1871	51.9024	-120.967	-36.8069	39.0901	
4	0.0333333	-97.5256	-50.6866	67.6619	-71.5331	-65.7018	59.6957	-48.5893	-73.695	52.1094	-28.8888	-80.9076	48.7406	-99.7567	-70.6526	-16.8036	-98.8845	-76.4827	-40.1126	-97.5088	-82.2872	-65.3182	-125.792	-64.4202	-32.6681	-125.607	-71.4036	-58.5997	-128.087	-74.2796	-82.2183	-156.652	-63.359	-23.2584	-154.197	-67.396	-52.9558	-158.875	-73.3512	-76.8141	-185.238	-68.0284	-2.0792	-189.319	-71.6151	-19.7353	-201.076	-66.5863	-40.2941	-155.743	-41.3748	22.8859	-153.88	-25.954	51.4777	-122.069	-37.8425	39.6311	
5	0.0416667	-95.9616	-52.2841	64.2219	-72.8196	-65.7356	60.175	-48.9557	-75.7254	48.0643	-28.0492	-81.8427	48.247	-99.1174	-70.9544	-15.3163	-101.401	-77.5904	-44.2911	-98.3726	-82.8846	-65.3551	-129.937	-64.9513	-31.4729	-126.318	-70.5044	-55.8624	-131.125	-74.7798	-83.5705	-157.097	-63.3988	-23.2442	-157.347	-67.5045	-52.493	-160.308	-72.7859	-73.5537	-182.833	-67.4315	-2.54752	-189.037	-71.4878	-17.7003	-201.693	-68.8564	-39.1252	-152.68	-41.1434	26.7958	-156.493	-26.0073	53.4864	-118.897	-38.0327	41.5657	
6	0.05	-93.6858	-51.6123	64.92	-70.1837	-65.5141	60.4697	-52.0972	-76.4689	51.5829	-31.1064	-82.7691	47.3206	-103.051	-71.8727	-20.741	-98.7197	-77.985	-39.823	-101.094	-83.0028	-65.9469	-131.188	-65.0906	-31.9662	-126.72	-70.6384	-53.4844	-129.376	-74.1231	-85.2314	-152.658	-63.8369	-20.8918	-156.349	-67.8134	-49.3447	-156.738	-72.6278	-77.2258	-185.357	-68.0128	-1.68763	-193.981	-72.0315	-21.4015	-202.26	-68.1041	-40.2677	-152.262	-43.3111	28.0528	-158.238	-25.356	54.9908	-122.148	-35.7712	41.7891	
7	0.0583333	-95.1356	-49.4766	69.0266	-72.1825	-64.8792	62.9199	-47.2284	-74.8129	49.3939	-28.7983	-80.8201	49.0922	-101.969	-71.026	-19.5291	-97.6455	-78.7231	-44.4516	-101.774	-82.4438	-66.1984	-129.41	-65.4903	-31.5439	-127.735	-71.0759	-54.3654	-125.823	-75.5971	-87.6264	-152.543	-63.8504	-22.2192	-158.804	-67.9936	-49.822	-159.451	-73.4733	-73.531	-185.898	-68.0221	-4.23448	-191.537	-72.001	-18.3626	-202.972	-68.6078	-42.81	-157.74	-42.3082	27.3049	-158.203	-26.3066	53.3689	-119.244	-35.6936	41.0784	
8	0.0666667	-95.2891	-51.3498	66.9276	-72.3733	-66.2141	60.2779	-52.0577	-75.7276	49.1889	-28.5625	-82.1925	44.5519	-102.102	-70.2465	-17.0469	-98.7707	-77.6837	-45.1367	-96.0099	-83.4072	-69.9119	-128.87	-63.8881	-28.1208	-130.003	-70.2938	-57.9722	-128.374	-75.02	-84.9997	-154.611	-62.9638	-23.862	-158.047	-66.886	-49.3189	-156.108	-73.4086	-76.102	-184.821	-66.8952	0.118144	-191.102	-71.3975	-17.3245	-202.616	-67.3746	-40.258	-155.209	-43.1679	26.3552	-159.339	-25.4961	56.5753	-121.772	-37.054	42.8197	
9	0.075	-97.7197	-50.1805	67.7831	-69.3573	-64.2149	62.2352	-49.0269	-72.337	52.6369	-32.3284	-82.4006	46.5968	-100.787	-70.2735	-18.257	-101.42	-75.9017	-40.8968	-99.6339	-81.0288	-67.6189	-127.202	-63.3569	-30.5938	-125.709	-69.1744	-55.7059	-127.577	-74.5222	-83.6293	-151.16	-62.1126	-25.1057	-158.512	-64.8866	-47.9932	-157.564	-72.4052	-74.4735	-180.146	-66.5145	-0.791468	-193.203	-70.5472	-19.7126	-200.49	-67.5973	-40.7034	-157.796	-41.138	26.3161	-158.403	-25.3102	52.4656	-120.737	-35.6596	43.4014	
10	0.0833333	-94.8486	-49.474	66.0024	-71.4941	-63.6009	61.6164	-49.1578	-73.119	50.4201	-28.1374	-79.9715	46.3478	-102.848	-69.8131	-19.6664	-98.2226	-75.8176	-41.7804	-99.5417	-80.6275	-70.1648	-128.184	-62.504	-32.3688	-126.453	-68.5595	-54.9769	-131.031	-73.1579	-84.0499	-157.378	-61.314	-23.2726	-157.568	-64.5123	-48.5416	-156.382	-70.7582	-76.1167	-180.132	-65.9474	-1.27691	-191.94	-68.8292	-20.0181	-199.94	-67.0795	-40.8901	-157.412	-40.4949	26.6303	-157.669	-26.3577	52.0908	-122.329	-34.4176	41.6471	
11	0.0916667	-98.3884	-49.375	68.3943	-69.3699	-61.6141	64.2298	-47.9006	-70.7976	52.2027	-31.29	-79.893	46.0266	-100.391	-68.4383	-19.7864	-97.0667	-74.5191	-44.2191	-99.0611	-78.7961	-66.5017	-127.645	-60.9549	-29.3618	-127.872	-66.319	-57.2197	-128.432	-71.0666	-87.6359	-155.154	-60.2677	-21.4316	-153.573	-64.2403	-47.96	-157.677	-68.8462	-72.6707	-179.859	-65.5076	-6.82429	-188.385	-68.6838	-19.1507	-201.43	-65.3265	-42.1585	-156.097	-38.8704	24.3369	-159.414	-23.6388	53.3803	-119.03	-36.511	41.3886	
12	0.1	-97.42	-47.9245	64.1706	-73.4072	-62.6331	61.0635	-47.332	-69.8686	52.5266	-28.4107	-76.0783	48.0673	-98.7108	-65.9567	-20.6939	-94.3403	-71.4715	-43.0664	-96.6973	-76.0403	-65.4267	-125.059	-59.2477	-31.2378	-126.448	-64.3511	-58.7054	-128.611	-67.7791	-83.9597	-155.819	-58.0229	-23.4824	-151.523	-62.5726	-51.5147	-155.588	-67.4497	-74.7214	-181.496	-63.68	-1.99311	-189.065	-67.3094	-18.5427	-198.761	-63.4669	-44.3948	-151.865	-40.4661	24.1381	-157.193	-22.8959	56.1345	-121.388	-34.049	43.5202	
13	0.108333	-96.9007	-46.1253	69.2	-68.8939	-58.8325	62.1153	-46.4633	-66.9943	50.1406	-27.4241	-74.6802	46.2024	-102.648	-62.2885	-17.7867	-97.0722	-67.265	-40.7861	-96.0122	-72.8978	-69.4991	-126.394	-56.2838	-33.0274	-124.277	-61.9694	-57.996	-125.623	-65.7074	-83.3599	-152.494	-56.8633	-25.5153	-152.989	-60.4054	-48.0497	-153.651	-65.6618	-73.3499	-179.138	-62.7563	-7.45312	-190.984	-66.8035	-23.8003	-196.426	-62.6906	-44.9016	-153.139	-39.4007	24.5371	-157.305	-21.6145	53.85	-121.617	-29.5477	45.1625	
14	0.116667	-95.4348	-42.3918	68.5652	-71.4276	-54.8903	64.1265	-47.5114	-62.9678	52.0385	-29.6788	-70.5044	45.3354	-101.847	-58.4655	-21.039	-97.9955	-63.5159	-43.2503	-95.9442	-69.6526	-69.5237	-125.144	-53.2611	-29.8165	-123.054	-58.727	-56.766	-126.44	-62.7205	-89.2525	-151.62	-54.5393	-24.8556	-152.39	-57.7335	-50.9519	-151.754	-63.5679	-73.4332	-182.749	-61.7101	-6.40028	-189.15	-64.3162	-19.8247	-199.032	-60.2622	-46.0609	-157.752	-35.5271	26.4664	-158.053	-23.5829	54.6043	-123.529	-28.6752	42.8879	
15	0.125	-96.3398	-40.092	68.4419	-71.0292	-52.2107	60.9526	-45.3269	-57.9419	47.7802	-28.5827	-64.9964	47.1575	-99.0635	-53.2793	-19.4815	-93.1092	-58.5081	-43.6292	-95.9094	-64.0983	-72.9277	-128.069	-48.4872	-29.4944	-121.617	-53.9031	-60.2541	-124.105	-58.3156	-86.3237	-152.593	-51.5863	-23.7102	-150.298	-55.3474	-49.9238	-152.426	-60.8415	-75.4183	-182.077	-61.2343	-5.56355	-186.665	-64.5866	-22.6587	-194.854	-60.6841	-46.7114	-155.663	-36.364	24.3771	-160.309	-22.4393	55.3951	-122.291	-25.1932	40.8115	
16	0.133333	-97.3268	-35.1733	69.7949	-68.3556	-46.6788	59.5536	-47.8909	-52.514	49.2874	-25.6794	-57.7713	42.4043	-99.7812	-46.4045	-18.0359	-95.3672	-52.7973	-47.1998	-93.8049	-57.6032	-70.8038	-129.192	-44.6598	-28.7069	-125.372	-48.4413	-59.3398	-124.387	-53.8251	-86.9861	-148.358	-49.6965	-25.7766	-151.099	-51.9803	-53.755	-150.098	-57.5273	-80.8175	-179.058	-62.4657	-8.33994	-185.102	-65.3508	-23.4923	-192.675	-63.0103	-46.1057	-158.057	-33.9504	27.9361	-161.565	-21.6545	53.503	-126.236	-22.5853	40.4427	
